<svg width="48" height="48" viewBox="0 0 48 48" fill="none" xmlns="http://www.w3.org/2000/svg">
<path d="M23.9999 4H17.3999C13.5999 4 10.5999 7 10.5999 10.6C10.5999 14.2 13.5999 17.2 17.1999 17.2H23.9999V4Z" stroke="#FF007A" stroke-width="1.5" stroke-miterlimit="10"/>
<path d="M24.0004 17.4001H17.4004C13.8004 17.4001 10.8004 20.4001 10.8004 24.0001C10.8004 27.6001 13.8004 30.6001 17.4004 30.6001H24.0004V17.4001Z" stroke="#FF007A" stroke-width="1.5" stroke-miterlimit="10"/>
<path d="M24.0004 30.5999H17.4004C13.8004 30.5999 10.8004 33.5999 10.8004 37.1999C10.8004 40.7999 13.8004 43.7999 17.4004 43.7999C21.0004 43.7999 24.0004 40.7999 24.0004 37.1999V30.5999Z" stroke="#FF007A" stroke-width="1.5" stroke-miterlimit="10"/>
<path d="M24 4H30.6C34.2 4 37.2 7 37.2 10.6C37.2 14.2 34.2 17.2 30.6 17.2H24V4Z" stroke="#FF007A" stroke-width="1.5" stroke-miterlimit="10"/>
<path d="M30.6 17.4001C34.2 17.4001 37.2 20.4001 37.2 24.0001C37.2 27.6001 34.2 30.6001 30.6 30.6001C27 30.6001 24 27.6001 24 24.0001C24 20.4001 27 17.4001 30.6 17.4001Z" stroke="#FF007A" stroke-width="1.5" stroke-miterlimit="10"/>
</svg>
