<svg width="48" height="48" viewBox="0 0 48 48" fill="none" xmlns="http://www.w3.org/2000/svg">
<path d="M18 17.9998V33.7998C18 36.7998 14.8 38.7998 12 37.1998L7 34.3998C6.4 34.1998 6 33.5998 6 32.7998V15.1998C6 14.3998 6.4 13.7998 7 13.3998L23 4.5998C23.6 4.1998 24.4 4.1998 25 4.5998L41 13.3998C41.6 13.7998 42 14.3998 42 15.1998V32.7998C42 33.5998 41.6 34.1998 41 34.5998L25 43.3998C24.4 43.7998 23.6 43.7998 23 43.3998L20 41.9998" stroke="#FF007A" stroke-width="1.5" stroke-miterlimit="10" stroke-linecap="round" stroke-linejoin="round"/>
<path d="M33.9999 21.6C33.9999 19.6 32.3999 18 30.5999 18H26.9999C24.9999 18 23.5999 19.6 23.5999 21.4C23.5999 23.4 25.1999 24.8 26.9999 24.8H30.5999C32.5999 24.8 33.9999 26.4 33.9999 28.2C33.9999 30.2 32.3999 31.6 30.5999 31.6H26.9999C24.9999 31.6 23.5999 30 23.5999 28.2" stroke="#FF007A" stroke-width="1.5" stroke-miterlimit="10" stroke-linecap="round" stroke-linejoin="round"/>
</svg>
